<?xml version="1.0" encoding="UTF-8"?>
<svg id="Layer_1" xmlns="http://www.w3.org/2000/svg" viewBox="0 0 1325.46 180.42">
  <g>
    <path d="M69.81,36.36H31.38c-3.34,3.47-6.01,7.68-7.98,12.62-1.98,4.95-2.97,10.27-2.97,15.97s.96,11.11,2.88,15.87c1.92,4.77,4.61,8.88,8.08,12.35h18.75c7.3,0,13.58,2.01,18.84,6.03s9.25,9.28,11.98,15.78c2.72,6.5,4.08,13.46,4.08,20.89s-1.39,14.95-4.18,21.81c-2.78,6.87-6.84,12.38-12.16,16.52-5.32,4.15-11.51,6.22-18.57,6.22l-42.89-.18,1.67-15.97h44.93c7.18-7.42,10.77-16.4,10.77-26.92,0-5.69-.96-10.98-2.88-15.87s-4.55-9-7.89-12.35h-18.94c-7.43,0-13.77-1.98-19.03-5.94s-9.22-9.19-11.88-15.69-3.99-13.52-3.99-21.07,1.39-15.25,4.18-22.37c2.78-7.12,6.84-12.87,12.16-17.27,5.32-4.39,11.57-6.59,18.75-6.59h36.39l-1.67,16.15h0Z"/>
    <path d="M122.35,61.79v76.49l4.27,41.97h-25.99l4.27-41.97V61.79l-4.27-41.97h25.99l-4.27,41.97Z"/>
    <path d="M237.82,36.36h-48.83c-7.92,7.55-14.14,16.74-18.66,27.57s-6.78,22.56-6.78,35.18,2.29,25.06,6.87,36.57c4.58,11.51,10.83,20.98,18.75,28.41h29.89v-52.91h-37.87v-20.24l37.87,4.64h17.45v63.12l2.6,21.54h-35.28c-13,0-24.17-3.65-33.51-10.95-9.35-7.3-16.37-16.86-21.07-28.68-4.71-11.82-7.06-24.54-7.06-38.15s2.51-27.48,7.52-40.1c5.01-12.62,12.19-22.81,21.54-30.54,9.34-7.74,20.2-11.6,32.58-11.6h35.65l-1.67,16.15h0Z"/>
    <path d="M347.73,57.52v85.03l4.46,37.87h-28.22l-47.16-117.71v117.52h-21.72l4.27-37.69V57.7l-4.27-37.87h21.72l46.23,115.29,7.24,12.62V19.82h21.72l-4.27,37.69h0Z"/>
    <path d="M391.17,133.08l46.41-112.88h27.85l64.98,160.04h-19.68l-22.09-53.84h-77.05l-21.91,53.84h-25.62l27.11-47.16h0ZM447.42,38.21l-29.52,72.59h64.24l-17.82-43.44-16.9-29.15h0Z"/>
    <path d="M560.67,141.81l2.79,22.28h41.77v16.15h-62.75l-.19-160.04h18.38v121.6h0Z"/>
  </g>
  <path d="M1070.56,91.99h30.82V14.01h21.72l-4.27,37.69v84.84l4.27,37.69h-21.9v-66.65h-30.63l-.18,66.65h-21.54l4.27-37.69V51.7l-4.27-37.69h21.54l.18,77.98h0Z"/>
  <path d="M1162.27,55.93v76.39l4.27,41.92h-25.99l4.27-41.92V55.93l-4.27-41.92h25.99l-4.27,41.92Z"/>
  <path d="M1202.37,135.81l2.79,22.28h41.77v16.15h-62.75l-.19-160.04h18.38v121.6h0Z"/>
  <path d="M1280.9,135.81l2.79,22.28h41.77v16.15h-62.75l-.19-160.04h18.38v121.6h0Z"/>
  <path d="M988.22,96.6c-2.62-26.2-11.35-46.29-28.82-49.78-13.1-2.62-30.7-1.31-30.7-1.31,0,0-12.53-37.99-38.73-44.54s-96.95,20.96-137.56,55.02-80.39,90.98-90.87,121.12h29.67c4.95-4.24,12.74-39.66,28.98-62.51,28.33-39.88,83.3-82.19,129.16-90.05,45.85-7.86,50.31,4.71,59.48,23.05,0,0-49.96,8.18-83.78,20.18-33.92,12.04-54.31,40.61-53,60.26s26.26,34.06,58.33,27.51,68.75-15.72,83.16-37.99,15.72-51.09,15.72-51.09c0,0,26.2-3.93,36.68,10.48,10.48,14.41-7.79,99.71-7.79,99.71h33.18c2.62-5.24-.5-53.85-3.12-80.05h.01ZM884.72,121.49c-17.05,10.44-45.14,22.32-68.72,18.39s-11.71-34.02,1.39-43.19c13.1-9.17,47.13-24.09,93.54-28.91,0,0,0,37.67-26.2,53.71h0Z"/>
</svg>